<svg xmlns="http://www.w3.org/2000/svg" width="400" height="400"><path fill="#E01B6A" d="M135.758 97.299c4.172 0 7.617 1.391 10.336 4.172s4.078 6.352 4.078 10.711v4.383c0 4.375-1.359 7.945-4.078 10.711s-6.164 4.148-10.336 4.148h-13.734v-2.062l3.82-.305v-29.368l-3.82-.305v-2.086h13.734zm-7.125 2.39v29.367h7.125c3.375 0 6.152-1.18 8.332-3.539s3.27-5.344 3.27-8.953v-4.453c0-3.562-1.094-6.523-3.281-8.883s-4.961-3.539-8.32-3.539h-7.126z"/><path fill="#E01B6A" d="M155.281 129.361l3.82-.305v-20.602l-3.82-.305v-2.086h6.609v22.992l3.82.305v2.062h-10.43v-2.061zm6.61-30.562h-2.789v-3.938h2.789v3.938z"/><path fill="#E01B6A" d="M170.539 118.955c0-4.047.863-7.285 2.59-9.715s4.121-3.645 7.184-3.645c1.797 0 3.355.395 4.676 1.184s2.41 1.902 3.27 3.34l.328-4.055h2.367v25.031c0 3.266-.883 5.844-2.648 7.734s-4.227 2.836-7.383 2.836c-1.219 0-2.52-.148-3.902-.445s-2.59-.703-3.621-1.219l.75-2.367c1.016.484 2.082.859 3.199 1.125s2.293.398 3.527.398c2.406 0 4.219-.711 5.438-2.133s1.828-3.398 1.828-5.93v-3.211c-.859 1.297-1.945 2.293-3.258 2.988s-2.852 1.043-4.617 1.043c-3.047 0-5.43-1.133-7.148-3.398s-2.578-5.289-2.578-9.07v-.491zm2.813.492c0 3.047.621 5.48 1.863 7.301s3.098 2.73 5.566 2.73c1.828 0 3.348-.414 4.559-1.242s2.145-1.969 2.801-3.422v-11.766c-.625-1.484-1.523-2.691-2.695-3.621s-2.711-1.395-4.617-1.395c-2.469 0-4.332 1.016-5.59 3.047s-1.887 4.656-1.887 7.875v.493z"/><path fill="#E01B6A" d="M197.141 129.361l3.82-.305v-20.602l-3.82-.305v-2.086h6.609v22.992l3.82.305v2.062h-10.43v-2.061zm6.609-30.562h-2.789v-3.938h2.789v3.938z"/><path fill="#E01B6A" d="M218.727 99.572v6.492h5.578v2.297h-5.578v16.523c0 1.656.301 2.832.902 3.527s1.402 1.043 2.402 1.043c.453 0 .895-.02 1.324-.059s.926-.105 1.488-.199l.422 2.086c-.469.203-1.039.359-1.711.469s-1.344.164-2.016.164c-1.781 0-3.168-.562-4.16-1.688s-1.488-2.906-1.488-5.344v-16.523h-4.359v-2.297h4.359v-6.492h2.837z"/><path fill="#E01B6A" d="M246.969 131.424c-.188-.859-.32-1.602-.398-2.227s-.117-1.258-.117-1.898c-.938 1.328-2.188 2.43-3.75 3.305s-3.32 1.312-5.273 1.312c-2.484 0-4.406-.641-5.766-1.922s-2.039-3.016-2.039-5.203c0-2.344 1.008-4.203 3.023-5.578s4.75-2.062 8.203-2.062h5.602v-3.352c0-1.812-.582-3.234-1.746-4.266s-2.793-1.547-4.887-1.547c-1.406 0-2.691.191-3.855.574s-2.137.902-2.918 1.559l-.234 3.398h-2.32l.023-4.875c1.172-.906 2.574-1.641 4.207-2.203s3.371-.844 5.215-.844c2.797 0 5.047.711 6.75 2.133s2.555 3.461 2.555 6.117v12.469c0 .516.012 1.012.035 1.488s.074.941.152 1.395l2.531.164v2.062h-4.993zm-9.235-1.992c2.031 0 3.82-.469 5.367-1.406s2.664-2.148 3.352-3.633v-5.086h-5.648c-2.547 0-4.582.527-6.105 1.582s-2.285 2.387-2.285 3.996c0 1.359.473 2.457 1.418 3.293s2.245 1.254 3.901 1.254z"/><path fill="#E01B6A" d="M255.383 96.947v-2.086h6.609v34.195l3.82.305v2.062h-10.43v-2.062l3.82-.305v-31.804l-3.819-.305z"/><path fill="#E01B6A" d="M90.793 154.899c3.578 0 6.348.91 8.309 2.73s2.941 4.23 2.941 7.23c0 3.031-.98 5.453-2.941 7.266s-4.73 2.719-8.309 2.719h-7.781v11.812l3.82.305v2.062h-10.43v-2.062l3.82-.305v-29.366l-3.82-.305v-2.086h14.391zm-7.781 17.555h7.781c2.812 0 4.926-.715 6.34-2.145s2.121-3.23 2.121-5.402c0-2.188-.703-4.004-2.109-5.449s-3.523-2.168-6.352-2.168h-7.781v15.164z"/><path fill="#E01B6A" d="M125.551 184.853c-.797 1.484-1.887 2.633-3.27 3.445s-3.012 1.219-4.887 1.219c-2.672 0-4.762-.906-6.27-2.719s-2.262-4.625-2.262-8.438v-12.305l-3.141-.305v-2.086h5.93v14.742c0 3.094.527 5.312 1.582 6.656s2.551 2.016 4.488 2.016c2.125 0 3.816-.469 5.074-1.406s2.145-2.234 2.66-3.891v-15.727l-3.609-.305v-2.086h6.420999999999999v22.992l3.398.305v2.062h-5.859l-.255-4.169z"/><path fill="#E01B6A" d="M157.59 177.048c0 3.797-.859 6.824-2.578 9.082s-4.086 3.387-7.102 3.387c-1.859 0-3.461-.371-4.805-1.113s-2.43-1.809-3.258-3.199l-.305 3.82h-2.391v-34.172l-3.82-.305v-2.086h6.609v15.188c.844-1.422 1.922-2.52 3.234-3.293s2.875-1.16 4.688-1.16c3.047 0 5.43 1.215 7.148 3.645s2.578 5.668 2.578 9.715v.491zm-2.836-.492c0-3.234-.625-5.863-1.875-7.887s-3.094-3.035-5.531-3.035c-1.969 0-3.551.484-4.746 1.453s-2.082 2.211-2.66 3.727v11.461c.625 1.469 1.559 2.637 2.801 3.504s2.793 1.301 4.652 1.301c2.438 0 4.273-.906 5.508-2.719s1.852-4.25 1.852-7.312v-.493z"/><path fill="#E01B6A" d="M161.551 154.548v-2.086h6.609v34.195l3.82.305v2.062h-10.43v-2.062l3.82-.305v-31.805l-3.819-.304z"/><path fill="#E01B6A" d="M176.223 186.962l3.82-.305v-20.602l-3.82-.305v-2.086h6.609v22.992l3.82.305v2.062h-10.43v-2.061zm6.609-30.563h-2.789v-3.938h2.789v3.938z"/><path fill="#E01B6A" d="M209.762 171.493h-2.297l-.328-3.586c-.703-.734-1.59-1.305-2.66-1.711s-2.301-.609-3.691-.609c-2.047 0-3.582.441-4.605 1.324s-1.535 1.918-1.535 3.105c0 1.172.441 2.141 1.324 2.906s2.645 1.438 5.285 2.016c3.016.672 5.273 1.59 6.773 2.754s2.25 2.746 2.25 4.746c0 2.109-.855 3.816-2.566 5.121s-3.973 1.957-6.785 1.957c-1.875 0-3.582-.262-5.121-.785s-2.871-1.262-3.996-2.215v-5.109h2.273l.398 3.609c.75.75 1.699 1.293 2.848 1.629s2.348.504 3.598.504c2.031 0 3.633-.445 4.805-1.336s1.758-1.969 1.758-3.234c0-1.188-.488-2.227-1.465-3.117s-2.738-1.617-5.285-2.18c-3.016-.656-5.254-1.527-6.715-2.613s-2.191-2.605-2.191-4.559c0-1.938.82-3.574 2.461-4.91s3.805-2.004 6.492-2.004c1.859 0 3.559.285 5.098.855s2.793 1.34 3.762 2.309l.115 5.133z"/><path fill="#E01B6A" d="M214.566 154.548v-2.086h6.609v15.539c.844-1.516 1.969-2.695 3.375-3.539s3.047-1.266 4.922-1.266c2.672 0 4.723.828 6.152 2.484s2.145 4.227 2.145 7.711v13.266l3.82.305v2.062h-10.453v-2.062l3.82-.305v-13.312c0-2.75-.543-4.723-1.629-5.918s-2.582-1.793-4.488-1.793c-1.922 0-3.527.504-4.816 1.512s-2.238 2.348-2.848 4.02v15.492l3.82.305v2.062h-10.43v-2.062l3.82-.305v-31.805l-3.819-.305z"/><path fill="#E01B6A" d="M245.621 186.962l3.82-.305v-20.602l-3.82-.305v-2.086h6.609v22.992l3.82.305v2.062h-10.43v-2.061zm6.609-30.563h-2.789v-3.938h2.789v3.938z"/><path fill="#E01B6A" d="M260.246 186.962l3.82-.305v-20.602l-3.82-.305v-2.086h6.305l.258 4.43c.812-1.562 1.91-2.77 3.293-3.621s3.02-1.277 4.91-1.277c2.75 0 4.844.84 6.281 2.52s2.156 4.301 2.156 7.863v13.078l3.82.305v2.062h-10.453v-2.062l3.82-.305v-13.055c0-2.906-.543-4.961-1.629-6.164s-2.629-1.805-4.629-1.805c-1.969 0-3.574.52-4.816 1.559s-2.137 2.418-2.684 4.137v15.328l3.82.305v2.062h-10.453v-2.062z"/><path fill="#E01B6A" d="M291.559 176.556c0-4.047.863-7.285 2.59-9.715s4.121-3.645 7.184-3.645c1.797 0 3.355.395 4.676 1.184s2.41 1.902 3.27 3.34l.328-4.055h2.367v25.031c0 3.266-.883 5.844-2.648 7.734s-4.227 2.836-7.383 2.836c-1.219 0-2.52-.148-3.902-.445s-2.59-.703-3.621-1.219l.75-2.367c1.016.484 2.082.859 3.199 1.125s2.293.398 3.527.398c2.406 0 4.219-.711 5.438-2.133s1.828-3.398 1.828-5.93v-3.211c-.859 1.297-1.945 2.293-3.258 2.988s-2.852 1.043-4.617 1.043c-3.047 0-5.43-1.133-7.148-3.398s-2.578-5.289-2.578-9.07v-.491zm2.812.492c0 3.047.621 5.48 1.863 7.301s3.098 2.73 5.566 2.73c1.828 0 3.348-.414 4.559-1.242s2.145-1.969 2.801-3.422v-11.766c-.625-1.484-1.523-2.691-2.695-3.621s-2.711-1.395-4.617-1.395c-2.469 0-4.332 1.016-5.59 3.047s-1.887 4.656-1.887 7.875v.493z"/><path fill="#E01B6A" d="M322.426 187.899c0 1.438-.293 2.844-.879 4.219s-1.387 2.539-2.402 3.492l-1.664-1.219c.734-1.031 1.277-2.055 1.629-3.07s.527-2.141.527-3.375v-3.328h2.789v3.281z"/><path fill="#E01B6A" d="M124.016 223.351v-2.086h6.164l.352 3.938c.859-1.406 1.957-2.492 3.293-3.258s2.902-1.148 4.699-1.148c3.047 0 5.43 1.215 7.148 3.645s2.578 5.668 2.578 9.715v.492c0 3.797-.859 6.824-2.578 9.082s-4.086 3.387-7.102 3.387c-1.781 0-3.34-.34-4.676-1.02s-2.426-1.645-3.27-2.895v10.781l3.82.305v2.086h-10.43v-2.086l3.82-.305v-30.328l-3.818-.305zm21.422 10.804c0-3.219-.641-5.844-1.922-7.875s-3.156-3.047-5.625-3.047c-1.891 0-3.426.449-4.605 1.348s-2.066 2.066-2.66 3.504v12.188c.641 1.391 1.566 2.484 2.777 3.281s2.723 1.195 4.535 1.195c2.453 0 4.316-.922 5.59-2.766s1.91-4.289 1.91-7.336v-.492z"/><path fill="#E01B6A" d="M152.023 212.147v-2.086h6.609v34.195l3.82.305v2.062h-10.43v-2.062l3.82-.305v-31.805l-3.819-.304z"/><path fill="#E01B6A" d="M178.062 247.116c-3.188 0-5.828-1.168-7.922-3.504s-3.14-5.308-3.14-8.918v-1.289c0-3.625 1.043-6.633 3.129-9.023s4.605-3.586 7.559-3.586c3.109 0 5.555.984 7.336 2.953s2.672 4.594 2.672 7.875v2.391h-17.906v.68c0 2.844.762 5.23 2.285 7.16s3.52 2.895 5.988 2.895c1.734 0 3.219-.242 4.453-.727s2.289-1.18 3.164-2.086l1.195 1.922c-.953 1-2.156 1.793-3.609 2.379s-3.188.878-5.204.878zm-.374-23.929c-2.062 0-3.801.793-5.215 2.379s-2.238 3.574-2.473 5.965l.047.117h14.859v-.703c0-2.203-.648-4.047-1.945-5.531s-3.055-2.227-5.273-2.227z"/><path fill="#E01B6A" d="M210.219 246.624c-.188-.859-.32-1.602-.398-2.227s-.117-1.258-.117-1.898c-.938 1.328-2.188 2.43-3.75 3.305s-3.32 1.312-5.273 1.312c-2.484 0-4.406-.641-5.766-1.922s-2.039-3.016-2.039-5.203c0-2.344 1.008-4.203 3.023-5.578s4.75-2.062 8.203-2.062h5.602v-3.352c0-1.812-.582-3.234-1.746-4.266s-2.793-1.547-4.887-1.547c-1.406 0-2.691.191-3.855.574s-2.137.902-2.918 1.559l-.234 3.398h-2.32l.023-4.875c1.172-.906 2.574-1.641 4.207-2.203s3.371-.844 5.215-.844c2.797 0 5.047.711 6.75 2.133s2.555 3.461 2.555 6.117v12.469c0 .516.012 1.012.035 1.488s.074.941.152 1.395l2.531.164v2.062h-4.993zm-9.235-1.992c2.031 0 3.82-.469 5.367-1.406s2.664-2.148 3.352-3.633v-5.086h-5.648c-2.547 0-4.582.527-6.105 1.582s-2.285 2.387-2.285 3.996c0 1.359.473 2.457 1.418 3.293s2.245 1.254 3.901 1.254z"/><path fill="#E01B6A" d="M237.594 229.093h-2.297l-.328-3.586c-.703-.734-1.59-1.305-2.66-1.711s-2.301-.609-3.691-.609c-2.047 0-3.582.441-4.605 1.324s-1.535 1.918-1.535 3.105c0 1.172.441 2.141 1.324 2.906s2.645 1.438 5.285 2.016c3.016.672 5.273 1.59 6.773 2.754s2.25 2.746 2.25 4.746c0 2.109-.855 3.816-2.566 5.121s-3.973 1.957-6.785 1.957c-1.875 0-3.582-.262-5.121-.785s-2.871-1.262-3.996-2.215v-5.109h2.273l.398 3.609c.75.75 1.699 1.293 2.848 1.629s2.348.504 3.598.504c2.031 0 3.633-.445 4.805-1.336s1.758-1.969 1.758-3.234c0-1.188-.488-2.227-1.465-3.117s-2.738-1.617-5.285-2.18c-3.016-.656-5.254-1.527-6.715-2.613s-2.191-2.605-2.191-4.559c0-1.938.82-3.574 2.461-4.91s3.805-2.004 6.492-2.004c1.859 0 3.559.285 5.098.855s2.793 1.34 3.762 2.309l.115 5.133z"/><path fill="#E01B6A" d="M254.398 247.116c-3.188 0-5.828-1.168-7.922-3.504s-3.141-5.309-3.141-8.918v-1.289c0-3.625 1.043-6.633 3.129-9.023s4.605-3.586 7.559-3.586c3.109 0 5.555.984 7.336 2.953s2.672 4.594 2.672 7.875v2.391h-17.906v.68c0 2.844.762 5.23 2.285 7.16s3.52 2.895 5.988 2.895c1.734 0 3.219-.242 4.453-.727s2.289-1.18 3.164-2.086l1.195 1.922c-.953 1-2.156 1.793-3.609 2.379s-3.187.878-5.203.878zm-.375-23.929c-2.062 0-3.801.793-5.215 2.379s-2.238 3.574-2.473 5.965l.047.117h14.859v-.703c0-2.203-.648-4.047-1.945-5.531s-3.054-2.227-5.273-2.227z"/><path fill="#E01B6A" d="M273.453 246.624h-3.328v-3.914h3.328v3.914zm-.281-11.203h-2.789v-22.922h2.789v22.922z"/><path d="M70.629 281.851l1.433-.114v-11.013l-1.433-.114v-.782h9.598v2.812h-.932l-.079-1.916h-6.108v5.001h5.344v.905h-5.344v5.106l1.433.114v.773h-3.911v-.772zM81.844 281.851l1.433-.114v-7.726l-1.433-.114v-.782h2.479v8.622l1.433.114v.773h-3.911v-.773zm2.478-11.461h-1.046v-1.477h1.046v1.477zM87.328 281.851l1.433-.114v-7.726l-1.433-.114v-.782h2.364l.097 1.661c.305-.586.717-1.038 1.235-1.358.519-.318 1.132-.479 1.841-.479 1.031 0 1.816.315 2.355.945s.809 1.612.809 2.948v4.904l1.433.114v.773h-3.92v-.773l1.433-.114v-4.896c0-1.09-.203-1.86-.61-2.312s-.986-.677-1.736-.677c-.738 0-1.34.195-1.806.584-.466.391-.802.907-1.007 1.552v5.748l1.433.114v.773h-3.92v-.771zM105.636 281.253c-.316.498-.724.882-1.222 1.151s-1.084.404-1.758.404c-1.137 0-2.025-.425-2.667-1.274s-.963-1.983-.963-3.401v-.185c0-1.518.321-2.731.963-3.643s1.536-1.367 2.685-1.367c.662 0 1.236.14 1.723.418s.891.675 1.213 1.19v-4.737l-1.433-.114v-.782h2.488v12.823l1.433.114v.773h-2.373l-.089-1.37zm-5.546-3.12c0 1.148.23 2.062.69 2.742s1.152 1.02 2.078 1.02c.674 0 1.238-.152 1.692-.457s.807-.724 1.059-1.257v-4.5c-.234-.539-.572-.979-1.015-1.318s-1.016-.51-1.719-.51c-.926 0-1.621.38-2.087 1.139s-.699 1.744-.699 2.957v.184zM116.508 270.68v2.435h2.092v.861h-2.092v6.196c0 .621.113 1.062.339 1.323s.525.391.9.391l.497-.021.558-.075.158.782c-.176.076-.39.135-.642.176s-.504.062-.756.062c-.668 0-1.188-.211-1.56-.633s-.559-1.09-.559-2.004v-6.196h-1.635v-.861h1.635v-2.435h1.065zM120.226 269.695v-.782h2.479v5.827c.316-.568.738-1.011 1.266-1.327s1.143-.475 1.846-.475c1.002 0 1.771.311 2.308.932s.804 1.585.804 2.892v4.975l1.433.114v.773h-3.92v-.773l1.433-.114v-4.992c0-1.031-.203-1.771-.61-2.22-.407-.447-.969-.672-1.684-.672-.721 0-1.322.189-1.806.566-.483.379-.84.881-1.068 1.508v5.81l1.433.114v.773h-3.911v-.773l1.433-.114v-11.927l-1.436-.115zM136.046 282.809c-1.195 0-2.186-.438-2.971-1.313s-1.178-1.991-1.178-3.345v-.483c0-1.359.392-2.487 1.174-3.384s1.727-1.345 2.834-1.345c1.166 0 2.083.369 2.751 1.107s1.002 1.723 1.002 2.953v.896h-6.715v.255c0 1.066.286 1.962.857 2.685.571.725 1.319 1.086 2.245 1.086.65 0 1.207-.091 1.67-.272s.858-.442 1.187-.782l.448.721c-.357.375-.809.672-1.354.893-.544.217-1.194.328-1.95.328zm-.141-8.974c-.773 0-1.425.298-1.955.893s-.84 1.34-.928 2.236l.018.044h5.572v-.264c0-.826-.243-1.518-.729-2.074s-1.146-.835-1.978-.835zM148.192 273.114l.132 1.582v.114c.27-.586.638-1.044 1.104-1.376.466-.33 1.018-.496 1.656-.496.135 0 .266.011.392.031l.312.065-.141.984-.782-.053c-.662 0-1.205.187-1.63.558-.425.373-.729.884-.91 1.534v5.678l1.433.114v.773h-3.911v-.773l1.433-.114v-7.726l-1.433-.114v-.782h2.345zM153.079 281.851l1.433-.114v-7.726l-1.433-.114v-.782h2.479v8.622l1.433.114v.773h-3.911v-.773zm2.479-11.461h-1.046v-1.477h1.046v1.477zM158.801 277.948c0-1.518.324-2.731.972-3.643s1.545-1.367 2.693-1.367c.674 0 1.259.148 1.754.443.495.297.903.714 1.226 1.253l.123-1.521h.888v9.387c0 1.225-.331 2.191-.993 2.9s-1.585 1.063-2.769 1.063c-.457 0-.944-.056-1.463-.167s-.972-.264-1.358-.457l.281-.888c.381.182.781.322 1.2.422s.859.149 1.322.149c.902 0 1.582-.267 2.039-.8s.686-1.274.686-2.224v-1.204c-.322.486-.729.86-1.222 1.12-.492.261-1.069.392-1.731.392-1.143 0-2.036-.425-2.681-1.274s-.967-1.983-.967-3.401v-.183zm1.054.185c0 1.143.233 2.056.699 2.737.466.684 1.161 1.024 2.087 1.024.686 0 1.256-.155 1.71-.466s.804-.738 1.05-1.283v-4.412c-.234-.557-.571-1.009-1.011-1.357s-1.017-.523-1.731-.523c-.926 0-1.624.381-2.096 1.143s-.708 1.746-.708 2.953v.184zM168.539 269.695v-.782h2.479v5.827c.316-.568.738-1.011 1.266-1.327s1.143-.475 1.846-.475c1.002 0 1.771.311 2.308.932s.804 1.585.804 2.892v4.975l1.433.114v.773h-3.92v-.773l1.433-.114v-4.992c0-1.031-.203-1.771-.61-2.22-.407-.447-.969-.672-1.684-.672-.721 0-1.322.189-1.806.566-.483.379-.84.881-1.068 1.508v5.81l1.433.114v.773h-3.911v-.773l1.433-.114v-11.927l-1.436-.115zM182.672 270.68v2.435h2.092v.861h-2.092v6.196c0 .621.113 1.062.339 1.323s.525.391.9.391l.497-.021.558-.075.158.782c-.176.076-.39.135-.642.176s-.504.062-.756.062c-.668 0-1.188-.211-1.56-.633s-.559-1.09-.559-2.004v-6.196h-1.635v-.861h1.635v-2.435h1.065zM197.974 276.05h-.861l-.123-1.345c-.264-.275-.596-.489-.997-.642s-.863-.229-1.385-.229c-.768 0-1.343.166-1.727.496-.384.332-.576.72-.576 1.165 0 .439.166.803.497 1.09s.991.539 1.981.756c1.131.252 1.978.597 2.54 1.032.562.438.844 1.03.844 1.78 0 .791-.32 1.432-.962 1.921s-1.49.733-2.545.733c-.703 0-1.343-.099-1.92-.294-.577-.196-1.077-.474-1.499-.831v-1.916h.853l.149 1.354c.281.281.638.485 1.068.61.431.127.88.189 1.349.189.762 0 1.362-.167 1.802-.501s.659-.738.659-1.213c0-.445-.183-.835-.549-1.169s-1.027-.606-1.982-.817c-1.131-.246-1.97-.572-2.518-.979s-.822-.978-.822-1.71c0-.727.308-1.341.923-1.841.615-.502 1.427-.752 2.435-.752.697 0 1.335.107 1.912.32.577.215 1.047.503 1.41.866l.044 1.927zM200.083 277.729c0-1.4.384-2.549 1.151-3.445s1.784-1.345 3.05-1.345c1.271 0 2.291.448 3.059 1.345s1.151 2.045 1.151 3.445v.29c0 1.406-.382 2.557-1.146 3.449-.765.895-1.78 1.341-3.046 1.341-1.277 0-2.3-.446-3.067-1.341-.768-.893-1.151-2.043-1.151-3.449v-.29zm1.055.29c0 1.102.278 2.027.835 2.777s1.333 1.125 2.329 1.125c.979 0 1.746-.375 2.303-1.125s.835-1.676.835-2.777v-.29c0-1.084-.279-2.004-.839-2.76s-1.332-1.134-2.316-1.134-1.755.378-2.312 1.134-.835 1.676-.835 2.76v.29zM209.821 269.695v-.782h2.479v12.823l1.433.114v.773h-3.911v-.773l1.433-.114v-11.926l-1.434-.115zM222.381 281.06c-.299.557-.707.987-1.226 1.292s-1.13.457-1.833.457c-1.002 0-1.785-.34-2.351-1.02s-.849-1.734-.849-3.164v-4.614l-1.178-.114v-.782h2.224v5.528c0 1.16.198 1.992.594 2.496s.956.756 1.683.756c.797 0 1.432-.176 1.903-.527s.804-.838.997-1.459v-5.897l-1.354-.114v-.782h2.409v8.622l1.274.114v.773h-2.197l-.096-1.565zM228.639 270.68v2.435h2.092v.861h-2.092v6.196c0 .621.113 1.062.339 1.323s.525.391.9.391l.497-.021.558-.075.158.782c-.176.076-.39.135-.642.176s-.504.062-.756.062c-.668 0-1.188-.211-1.56-.633s-.559-1.09-.559-2.004v-6.196h-1.635v-.861h1.635v-2.435h1.065zM232.594 281.851l1.433-.114v-7.726l-1.433-.114v-.782h2.479v8.622l1.433.114v.773h-3.911v-.773zm2.478-11.461h-1.046v-1.477h1.046v1.477zM238.271 277.729c0-1.4.384-2.549 1.151-3.445s1.784-1.345 3.05-1.345c1.271 0 2.291.448 3.059 1.345s1.151 2.045 1.151 3.445v.29c0 1.406-.382 2.557-1.146 3.449-.765.895-1.78 1.341-3.046 1.341-1.277 0-2.3-.446-3.067-1.341-.768-.893-1.151-2.043-1.151-3.449v-.29zm1.055.29c0 1.102.278 2.027.835 2.777s1.333 1.125 2.329 1.125c.979 0 1.746-.375 2.303-1.125s.835-1.676.835-2.777v-.29c0-1.084-.279-2.004-.839-2.76s-1.332-1.134-2.316-1.134-1.755.378-2.312 1.134-.835 1.676-.835 2.76v.29zM248.203 281.851l1.433-.114v-7.726l-1.433-.114v-.782h2.364l.097 1.661c.305-.586.717-1.038 1.235-1.358.519-.318 1.132-.479 1.841-.479 1.031 0 1.816.315 2.355.945s.809 1.612.809 2.948v4.904l1.433.114v.773h-3.92v-.773l1.433-.114v-4.896c0-1.09-.203-1.86-.61-2.312s-.986-.677-1.736-.677c-.738 0-1.34.195-1.806.584-.466.391-.802.907-1.007 1.552v5.748l1.433.114v.773h-3.92v-.771zM264.217 273.976v-.861h1.573v-1.389c0-.955.24-1.693.721-2.215s1.151-.782 2.013-.782c.188 0 .381.015.58.044s.401.07.606.123l-.132.87-.431-.083s-.319-.031-.519-.031c-.574 0-1.015.182-1.322.545s-.462.873-.462 1.529v1.389h2.268v.861h-2.268v7.761l1.433.114v.773h-3.92v-.773l1.433-.114v-7.761h-1.573zM270.738 277.729c0-1.4.384-2.549 1.151-3.445s1.784-1.345 3.05-1.345c1.271 0 2.291.448 3.059 1.345s1.151 2.045 1.151 3.445v.29c0 1.406-.382 2.557-1.146 3.449-.765.895-1.78 1.341-3.046 1.341-1.277 0-2.3-.446-3.067-1.341-.768-.893-1.151-2.043-1.151-3.449v-.29zm1.055.29c0 1.102.278 2.027.835 2.777s1.333 1.125 2.329 1.125c.979 0 1.746-.375 2.303-1.125s.835-1.676.835-2.777v-.29c0-1.084-.279-2.004-.839-2.76s-1.332-1.134-2.316-1.134-1.755.378-2.312 1.134-.835 1.676-.835 2.76v.29zM283.14 273.114l.132 1.582v.114c.27-.586.638-1.044 1.104-1.376.466-.33 1.018-.496 1.656-.496.135 0 .266.011.392.031l.312.065-.141.984-.782-.053c-.662 0-1.205.187-1.63.558-.425.373-.729.884-.91 1.534v5.678l1.433.114v.773h-3.911v-.773l1.433-.114v-7.726l-1.433-.114v-.782h2.345zM301.598 273.896l-.967.079-3.841 10.169c-.246.645-.565 1.192-.958 1.644s-.967.677-1.723.677c-.123 0-.272-.013-.448-.04-.176-.025-.305-.054-.387-.083l.123-.879.338.04.33.021c.463 0 .829-.161 1.099-.483s.507-.741.712-1.257l.492-1.274-3.375-8.534-.967-.079v-.782h3.27v.782l-1.134.088 2.32 6.064.334 1.143h.053l2.602-7.207-1.16-.088v-.782h3.287v.781zM302.66 277.729c0-1.4.384-2.549 1.151-3.445s1.784-1.345 3.05-1.345c1.271 0 2.291.448 3.059 1.345s1.151 2.045 1.151 3.445v.29c0 1.406-.383 2.557-1.146 3.449-.766.895-1.78 1.341-3.046 1.341-1.277 0-2.3-.446-3.067-1.341-.768-.893-1.151-2.043-1.151-3.449v-.29zm1.055.29c0 1.102.278 2.027.835 2.777s1.333 1.125 2.329 1.125c.979 0 1.746-.375 2.303-1.125s.835-1.676.835-2.777v-.29c0-1.084-.28-2.004-.84-2.76s-1.331-1.134-2.315-1.134-1.755.378-2.312 1.134-.835 1.676-.835 2.76v.29zM319.772 281.06c-.299.557-.707.987-1.227 1.292-.518.305-1.129.457-1.832.457-1.002 0-1.786-.34-2.352-1.02s-.848-1.734-.848-3.164v-4.614l-1.178-.114v-.782h2.224v5.528c0 1.16.198 1.992.593 2.496.396.504.957.756 1.684.756.797 0 1.431-.176 1.902-.527s.805-.838.998-1.459v-5.897l-1.354-.114v-.782h2.409v8.622l1.274.114v.773h-2.197l-.096-1.565zM325.89 273.114l.132 1.582v.114c.27-.586.638-1.044 1.103-1.376.467-.33 1.019-.496 1.657-.496.135 0 .265.011.392.031l.312.065-.141.984-.782-.053c-.662 0-1.206.187-1.631.558-.425.373-.728.884-.909 1.534v5.678l1.433.114v.773h-3.911v-.773l1.433-.114v-7.726l-1.433-.114v-.782h2.345zM95.832 291.428c1.564 0 2.856.521 3.876 1.564s1.529 2.382 1.529 4.017v1.644c0 1.641-.51 2.979-1.529 4.017s-2.312 1.556-3.876 1.556h-5.15v-.773l1.433-.114v-11.013l-1.433-.114v-.782h5.15zm-2.672.896v11.013h2.672c1.266 0 2.307-.442 3.124-1.327s1.227-2.004 1.227-3.357v-1.67c0-1.336-.41-2.446-1.23-3.331s-1.86-1.327-3.12-1.327h-2.673zM103.153 303.451l1.433-.114v-7.726l-1.433-.114v-.782h2.479v8.622l1.433.114v.773h-3.911v-.773zm2.479-11.461h-1.046v-1.477h1.046v1.477zM108.875 299.549c0-1.518.323-2.731.971-3.643s1.546-1.367 2.694-1.367c.674 0 1.258.148 1.753.443.495.297.904.714 1.227 1.253l.123-1.521h.888v9.387c0 1.225-.331 2.191-.993 2.9s-1.585 1.063-2.769 1.063c-.457 0-.945-.056-1.464-.167s-.971-.264-1.357-.457l.281-.888c.381.182.78.322 1.199.422s.86.149 1.323.149c.902 0 1.582-.267 2.039-.8s.686-1.274.686-2.224v-1.204c-.322.486-.729.86-1.222 1.12-.492.261-1.069.392-1.731.392-1.143 0-2.036-.425-2.681-1.274s-.967-1.983-.967-3.401v-.183zm1.055.184c0 1.143.232 2.056.698 2.737.466.684 1.162 1.024 2.088 1.024.686 0 1.255-.155 1.709-.466s.805-.738 1.051-1.283v-4.412c-.234-.557-.571-1.009-1.011-1.357s-1.017-.523-1.731-.523c-.926 0-1.625.381-2.097 1.143s-.707 1.746-.707 2.953v.184zM118.851 303.451l1.433-.114v-7.726l-1.433-.114v-.782h2.479v8.622l1.433.114v.773h-3.911v-.773zm2.478-11.461h-1.046v-1.477h1.046v1.477zM126.945 292.28v2.435h2.092v.861h-2.092v6.196c0 .621.112 1.062.338 1.323s.526.391.901.391l.496-.021.559-.075.158.782c-.176.076-.39.135-.642.176s-.504.062-.756.062c-.668 0-1.188-.211-1.561-.633s-.558-1.09-.558-2.004v-6.196h-1.635v-.861h1.635v-2.435h1.065zM137.536 304.225c-.07-.322-.12-.601-.149-.835s-.044-.472-.044-.712c-.352.498-.82.911-1.406 1.239s-1.245.492-1.978.492c-.932 0-1.652-.24-2.162-.721s-.765-1.131-.765-1.951c0-.879.378-1.576 1.134-2.092s1.781-.773 3.076-.773h2.101v-1.257c0-.68-.219-1.213-.655-1.6s-1.047-.58-1.832-.58c-.527 0-1.01.072-1.446.215-.437.145-.801.339-1.094.585l-.088 1.274h-.87l.009-1.828c.439-.34.965-.615 1.577-.826s1.265-.316 1.956-.316c1.049 0 1.893.267 2.531.8s.958 1.298.958 2.294v4.676l.013.559s.028.353.058.522l.949.062v.773h-1.873zm-3.463-.747c.762 0 1.433-.176 2.013-.527s.999-.806 1.257-1.362v-1.907h-2.118c-.955 0-1.719.198-2.29.593-.571.396-.856.896-.856 1.499 0 .51.177.922.531 1.235s.842.469 1.463.469zM140.691 291.296v-.782h2.479v12.823l1.433.114v.773h-3.911v-.773l1.433-.114v-11.927l-1.434-.114zM155.809 291.428c1.342 0 2.38.342 3.115 1.023.735.684 1.104 1.587 1.104 2.712 0 1.137-.368 2.045-1.104 2.725s-1.773 1.02-3.115 1.02h-2.918v4.43l1.433.114v.773h-3.911v-.773l1.433-.114v-11.013l-1.433-.114v-.782h5.396zm-2.918 6.583h2.918c1.055 0 1.847-.269 2.377-.804.53-.537.796-1.212.796-2.026 0-.82-.264-1.501-.791-2.044-.527-.541-1.321-.812-2.382-.812h-2.918v5.686zM168.843 302.66c-.299.557-.708.987-1.227 1.292s-1.129.457-1.832.457c-1.002 0-1.786-.34-2.352-1.02s-.848-1.734-.848-3.164v-4.614l-1.178-.114v-.782h2.224v5.528c0 1.16.197 1.992.593 2.496s.957.756 1.684.756c.797 0 1.431-.176 1.902-.527s.805-.838.998-1.459v-5.897l-1.354-.114v-.782h2.409v8.622l1.274.114v.773h-2.197l-.096-1.565zM180.857 299.733c0 1.424-.322 2.56-.967 3.405-.645.848-1.532 1.271-2.663 1.271-.697 0-1.298-.14-1.802-.417-.504-.278-.911-.679-1.222-1.2l-.114 1.433h-.896v-12.815l-1.433-.114v-.782h2.479v5.695c.316-.533.721-.945 1.213-1.234.492-.291 1.078-.436 1.758-.436 1.143 0 2.036.456 2.681 1.367s.967 2.125.967 3.643v.184zm-1.063-.184c0-1.213-.234-2.198-.703-2.957s-1.16-1.139-2.074-1.139c-.738 0-1.332.182-1.78.545s-.78.829-.997 1.397v4.298c.234.551.584.988 1.05 1.314.466.324 1.048.487 1.745.487.914 0 1.603-.34 2.065-1.02s.694-1.594.694-2.742v-.183zM182.343 291.296v-.782h2.479v12.823l1.433.114v.773h-3.911v-.773l1.433-.114v-11.927l-1.434-.114zM187.845 303.451l1.433-.114v-7.726l-1.433-.114v-.782h2.479v8.622l1.433.114v.773h-3.911v-.773zm2.478-11.461h-1.046v-1.477h1.046v1.477zM200.422 297.65h-.861l-.123-1.345c-.264-.275-.597-.489-.998-.642s-.862-.229-1.384-.229c-.768 0-1.344.166-1.728.496-.384.332-.575.72-.575 1.165 0 .439.165.803.496 1.09s.992.539 1.982.756c1.131.252 1.978.597 2.54 1.032.562.438.844 1.03.844 1.78 0 .791-.321 1.432-.963 1.921s-1.489.733-2.544.733c-.703 0-1.344-.099-1.921-.294-.577-.196-1.076-.474-1.498-.831v-1.916h.853l.149 1.354c.281.281.637.485 1.067.61.431.127.881.189 1.35.189.762 0 1.362-.167 1.802-.501s.659-.738.659-1.213c0-.445-.184-.835-.55-1.169s-1.026-.606-1.981-.817c-1.131-.246-1.971-.572-2.519-.979s-.821-.978-.821-1.71c0-.727.308-1.341.923-1.841.615-.502 1.427-.752 2.435-.752.697 0 1.334.107 1.911.32.577.215 1.048.503 1.411.866l.044 1.927zM202.224 291.296v-.782h2.479v5.827c.316-.568.738-1.011 1.266-1.327s1.143-.475 1.846-.475c1.002 0 1.771.311 2.307.932s.805 1.585.805 2.892v4.975l1.433.114v.773h-3.92v-.773l1.433-.114v-4.992c0-1.031-.204-1.771-.611-2.22-.407-.447-.968-.672-1.683-.672-.721 0-1.323.189-1.807.566-.483.379-.839.881-1.067 1.508v5.81l1.433.114v.773h-3.911v-.773l1.433-.114v-11.928l-1.436-.114zM213.869 303.451l1.433-.114v-7.726l-1.433-.114v-.782h2.479v8.622l1.433.114v.773h-3.911v-.773zm2.479-11.461h-1.046v-1.477h1.046v1.477zM219.354 303.451l1.433-.114v-7.726l-1.433-.114v-.782h2.364l.097 1.661c.305-.586.716-1.038 1.234-1.358.519-.318 1.133-.479 1.842-.479 1.031 0 1.816.315 2.355.945s.809 1.612.809 2.948v4.904l1.433.114v.773h-3.92v-.773l1.433-.114v-4.896c0-1.09-.204-1.86-.611-2.312s-.985-.677-1.735-.677c-.738 0-1.341.195-1.807.584-.466.391-.801.907-1.006 1.552v5.748l1.433.114v.773h-3.92v-.771zM231.096 299.549c0-1.518.323-2.731.971-3.643s1.546-1.367 2.694-1.367c.674 0 1.258.148 1.753.443.495.297.904.714 1.227 1.253l.123-1.521h.888v9.387c0 1.225-.331 2.191-.993 2.9s-1.585 1.063-2.769 1.063c-.457 0-.945-.056-1.464-.167s-.971-.264-1.357-.457l.281-.888c.381.182.78.322 1.199.422s.86.149 1.323.149c.902 0 1.582-.267 2.039-.8s.686-1.274.686-2.224v-1.204c-.322.486-.729.86-1.222 1.12-.492.261-1.069.392-1.731.392-1.143 0-2.036-.425-2.681-1.274s-.967-1.983-.967-3.401v-.183zm1.054.184c0 1.143.232 2.056.698 2.737.466.684 1.162 1.024 2.088 1.024.686 0 1.255-.155 1.709-.466s.805-.738 1.051-1.283v-4.412c-.234-.557-.571-1.009-1.011-1.357s-1.017-.523-1.731-.523c-.926 0-1.625.381-2.097 1.143s-.707 1.746-.707 2.953v.184zM245.237 295.497v-.782h2.312l.132 1.477c.322-.527.733-.935 1.234-1.222s1.089-.431 1.763-.431c1.143 0 2.036.456 2.681 1.367s.967 2.125.967 3.643v.185c0 1.424-.322 2.56-.967 3.405-.645.848-1.532 1.271-2.663 1.271-.668 0-1.253-.128-1.754-.382-.501-.256-.909-.617-1.226-1.086v4.043l1.433.114v.782h-3.911v-.782l1.433-.114v-11.373l-1.434-.115zm8.034 4.052c0-1.207-.24-2.191-.721-2.953s-1.184-1.143-2.109-1.143c-.709 0-1.285.169-1.728.506s-.774.774-.997 1.313v4.57c.24.521.587.932 1.041 1.23s1.021.448 1.701.448c.92 0 1.618-.346 2.096-1.037s.717-1.608.717-2.751v-.183zM258.315 294.715l.132 1.582v.114c.27-.586.637-1.044 1.103-1.376.466-.33 1.019-.496 1.657-.496.135 0 .265.011.391.031l.312.065-.141.984-.782-.053c-.662 0-1.206.187-1.631.558-.425.373-.728.884-.909 1.534v5.678l1.433.114v.773h-3.911v-.773l1.433-.114v-7.726l-1.433-.114v-.782h2.346zM263.097 299.329c0-1.4.384-2.549 1.151-3.445s1.784-1.345 3.05-1.345c1.271 0 2.291.448 3.059 1.345s1.151 2.045 1.151 3.445v.29c0 1.406-.383 2.557-1.147 3.449-.765.895-1.779 1.341-3.045 1.341-1.277 0-2.3-.446-3.067-1.341-.768-.893-1.151-2.043-1.151-3.449v-.29zm1.054.29c0 1.102.278 2.027.835 2.777s1.333 1.125 2.329 1.125c.979 0 1.746-.375 2.303-1.125s.835-1.676.835-2.777v-.29c0-1.084-.28-2.004-.84-2.76s-1.331-1.134-2.315-1.134-1.755.378-2.312 1.134-.835 1.676-.835 2.76v.29zM279.831 302.854c-.316.498-.724.882-1.222 1.151s-1.084.404-1.758.404c-1.137 0-2.026-.425-2.668-1.274s-.962-1.983-.962-3.401v-.185c0-1.518.32-2.731.962-3.643s1.537-1.367 2.686-1.367c.662 0 1.236.14 1.723.418s.891.675 1.213 1.19v-4.737l-1.433-.114v-.782h2.488v12.823l1.433.114v.773h-2.373l-.089-1.37zm-5.546-3.121c0 1.148.229 2.062.689 2.742s1.153 1.02 2.079 1.02c.674 0 1.237-.152 1.691-.457s.808-.724 1.06-1.257v-4.5c-.234-.539-.573-.979-1.016-1.318s-1.015-.51-1.718-.51c-.926 0-1.622.38-2.088 1.139s-.698 1.744-.698 2.957v.184zM290.896 302.66c-.299.557-.707.987-1.227 1.292-.518.305-1.129.457-1.832.457-1.002 0-1.786-.34-2.352-1.02s-.848-1.734-.848-3.164v-4.614l-1.178-.114v-.782h2.224v5.528c0 1.16.197 1.992.593 2.496s.957.756 1.684.756c.797 0 1.431-.176 1.902-.527s.805-.838.998-1.459v-5.897l-1.354-.114v-.782h2.409v8.622l1.274.114v.773h-2.197l-.096-1.565zM298.798 303.521c.697 0 1.312-.199 1.846-.598s.8-.952.8-1.661h.932l.018.053c.029.879-.32 1.614-1.051 2.206-.729.592-1.577.888-2.544.888-1.289 0-2.288-.444-2.997-1.331-.709-.889-1.063-2.029-1.063-3.424v-.369c0-1.383.354-2.52 1.063-3.41s1.705-1.336 2.988-1.336c.732 0 1.403.138 2.013.413s1.104.65 1.485 1.125l.044 2.074h-.896l-.167-1.688c-.281-.316-.632-.567-1.051-.751-.419-.186-.895-.277-1.428-.277-1.02 0-1.774.365-2.264 1.094-.489.73-.733 1.648-.733 2.756v.369c0 1.125.243 2.051.729 2.777s1.245 1.09 2.276 1.09zM306.77 292.28v2.435h2.092v.861h-2.092v6.196c0 .621.112 1.062.338 1.323s.526.391.901.391l.497-.021.558-.075.158.782c-.176.076-.39.135-.642.176s-.504.062-.756.062c-.668 0-1.188-.211-1.561-.633s-.558-1.09-.558-2.004v-6.196h-1.635v-.861h1.635v-2.435h1.065z"/></svg>