<?xml version="1.0" encoding="utf-8"?>
<!-- Generator: Adobe Illustrator 17.0.0, SVG Export Plug-In . SVG Version: 6.00 Build 0)  -->
<!DOCTYPE svg PUBLIC "-//W3C//DTD SVG 1.1//EN" "http://www.w3.org/Graphics/SVG/1.1/DTD/svg11.dtd">
<svg version="1.1" id="Layer_1" xmlns="http://www.w3.org/2000/svg" xmlns:xlink="http://www.w3.org/1999/xlink" x="0px" y="0px"
	 width="80px" height="80px" viewBox="0 0 80 80" enable-background="new 0 0 80 80" xml:space="preserve">
<path fill="#0099FF" d="M57.675,7.324c-9.764-9.765-25.584-9.765-35.351,0c-9.766,9.76-9.766,25.594,0,35.352
	c0,0,17.665,17.325,17.665,37.325c0-20,17.685-37.325,17.685-37.325C67.443,32.918,67.443,17.084,57.675,7.324z"/>
<path fill="#FFFFFF" d="M44,9h-8c-8,0-8,0-8,8v16c0,8,0,8,8,8h8c8,0,8,0,8-8V17C52,9,52,9,44,9z M48,13.024V33H32V13.024"/>
<rect x="38.104" y="35.097" fill="#0099FF" width="3.792" height="3.792"/>
</svg>
