<svg xmlns="http://www.w3.org/2000/svg" width="103" height="98.517" viewBox="22.803 14.221 103 98.517" enable-background="new 22.803 14.221 103 98.517"><g fill="#9C3C66"><path d="M110.64 90.971c-.018 1.526-1.277 2.89-2.798 3.027l-67.929 6.133c-1.519 .14-3.041-.969-3.379-2.458l-11.893-52.45c-.338-1.49 .635-2.756 2.162-2.816l81.66-3.161c1.527-.059 2.761 1.143 2.744 2.668l-.567 49.057z"/><path d="M35.435 16.57c-.928 .571-.669 1.717-.544 3.022 4.064 42.359 7.201 70.662 8.436 81.161 .312 2.655 .599 3.325 1.447 3.941 1.031 .75 3.087 1.269 4.187 1.437 9.278 1.418 29.857 2.501 39.251 2.689 1.704 .037 5.209-.162 6.684-1.303 1.202-.935 2.248-2.822 2.616-4.715 .37-1.889 9.928-50.93 10.262-52.665 .334-1.733 .374-2.627 .379-3.782 .004-1.333-.546-3.28-3.249-4.823-8.459-4.833-30.268-15.766-66.184-24.9-1.42-.36-2.407-.605-3.285-.062z"/><path d="M108.405 88.445c-.748-12.795-4.322-31.337-6.596-46.079-.305-1.962-.782-4.613-2.072-5.854-1.209-1.164-3.346-1.648-5.476-1.991-15.46-2.489-49.882-6.408-66.454-3.843-.649 .101-2.357 .511-2.77 1.417-.345 .757-.14 1.862 .165 2.631 10.672 26.938 16.966 48.353 27.246 73.619 .492 1.213 1.189 2.439 2.496 2.75 1.449 .341 3.362-.361 4.341-.633 4.325-1.203 43.125-11.348 44.745-11.802 1.617-.458 3.347-.99 4.001-2.054 .958-1.552 .575-5.37 .374-8.161z"/></g><g><path fill="#9C3C66" d="M108.404 88.424l-.002-.008-.001-.025m-.003-.046-.002-.024l.002 .021-.002-.021m-.004-.071-80.223-45.896l-1.365 .053c-1.527 .059-2.5 1.326-2.162 2.816l11.892 52.45c.318 1.405 1.69 2.469 3.122 2.469l.257-.012 3.304-.299c-.549-4.713-1.414-12.404-2.528-22.816-3.964-11.18-7.844-22.405-12.52-34.661m80.404-3.11l-.108 .001-7.212 .279c1.412 .749 2.629 1.421 3.651 2.006 2.702 1.543 3.254 3.49 3.25 4.823-.004 1.155-.045 2.047-.379 3.782l-2.555 13.114c1.465 9.082 2.769 18.037 3.186 25.193 .119 1.656 .303 3.674 .232 5.365 1.141-.448 1.988-1.588 2.003-2.838l.568-49.055c.017-1.488-1.159-2.67-2.636-2.67"/><path fill="#9C3C66" d="M101.245 39.521l.001 .004h.007l-.008-.004m-64.621-23.269c-.431 0-.821 .089-1.189 .318-.928 .571-.669 1.717-.544 3.022 .34 3.553 .676 7.009 1.001 10.361 1.828-.077 3.751-.112 5.746-.112 15.407 0 35.082 2.122 47.72 3.936-11.6-5.157-28.42-11.495-50.638-17.146-.823-.209-1.501-.379-2.096-.379"/><path fill="#641F38" d="M101.253 39.526h-.007c.258 .96 .429 1.969 .563 2.84 1 6.497 2.256 13.729 3.41 20.886l2.554-13.114c.334-1.733 .374-2.627 .379-3.782 .004-1.333-.546-3.28-3.249-4.823-1.021-.586-2.238-1.258-3.65-2.007"/><path fill="#9C3C66" d="M48.876 99.321l-5.656 .511 .106 .921c.312 2.655 .599 3.325 1.447 3.941 1.031 .75 3.087 1.269 4.187 1.437 .829 .127 1.749 .252 2.745 .371-.976-2.424-1.916-4.815-2.829-7.181"/><path fill="#641F38" d="M40.689 77.015c1.114 10.412 1.979 18.104 2.528 22.816l5.658-.511c-2.929-7.602-5.577-14.943-8.186-22.305"/><path fill="#9C3C66" d="M98.009 100.251c-7.501 1.974-20.361 5.344-29.278 7.696 7.416 .465 14.823 .779 19.481 .872l.39 .004c1.803 0 4.925-.247 6.294-1.308 1.202-.934 2.248-2.821 2.616-4.715l.497-2.549"/><path fill="#9C3C66" d="M35.892 29.953c-2.986 .125-5.717 .359-8.085 .725-.649 .101-2.357 .511-2.77 1.417-.345 .757-.14 1.862 .165 2.631 1.027 2.59 2.014 5.132 2.966 7.629l8.913-.344c-.382-3.86-.779-7.882-1.189-12.058"/><path fill="#641F38" d="M37.082 42.01l-8.913 .345c4.677 12.256 8.556 23.48 12.52 34.661-1.013-9.48-2.232-21.212-3.607-35.006"/><path fill="#9C3C66" d="M108.636 93.81c-.252 .097-.519 .163-.794 .188l-8.77 .792-1.064 5.462c3.366-.885 5.651-1.489 6.02-1.593 1.618-.457 3.348-.989 4.002-2.054 .392-.631 .559-1.637 .606-2.795m-19.278-60.032c4.883 2.171 8.84 4.132 11.888 5.745-.325-1.197-.792-2.322-1.507-3.009-1.21-1.164-3.346-1.648-5.477-1.991-1.473-.24-3.119-.489-4.904-.745"/><path fill="#641F38" d="M108.404 88.424l-.002-.008-.001-.022m-.003-.044 0-.007l-.002-.021 .002 .021m-.006-.091-3.173-25c-1.93 9.902-4.513 23.154-6.146 31.537l8.77-.791c.275-.025 .542-.091 .794-.189 .07-1.69-.113-3.709-.231-5.365-.417-7.155-1.721-16.111-3.187-25.192"/><path fill="#9C3C66" d="M51.704 106.502l.745 1.843c.492 1.213 1.189 2.439 2.496 2.751 .272 .063 .563 .092 .858 .092 1.279 0 2.689-.504 3.483-.725 1.152-.32 4.751-1.276 9.446-2.515-6.204-.39-12.416-.885-17.028-1.446"/><path fill="#641F38" d="M99.075 94.789l-50.199 4.532c.913 2.365 1.853 4.756 2.828 7.18 4.612 .562 10.823 1.056 17.026 1.446 8.917-2.354 21.777-5.723 29.278-7.696l1.067-5.462m-57.437-64.947c-1.994 0-3.917 .035-5.746 .112 .41 4.176 .807 8.197 1.189 12.056l64.165-2.483-.001-.004c-3.047-1.613-7.005-3.574-11.888-5.745-12.638-1.815-32.313-3.936-47.719-3.936"/><path fill="#461B29" d="M101.246 39.526l-64.165 2.484c1.375 13.795 2.594 25.527 3.607 35.008 2.609 7.359 5.253 14.701 8.187 22.305l50.198-4.531 6.146-31.538c-1.154-7.154-2.41-14.387-3.41-20.885-.133-.874-.304-1.884-.563-2.843"/></g><g fill="#fff"><path d="M49.24 47.841h7.872c2.21 0 4.903 .76 4.903 5.613 0 5.536-2.869 5.918-4.903 5.867-1.016-.052-4.799-.457-4.927-.508v7.62h-2.945v-18.592zm7.693 8.788c1.195 0 2.109-.508 2.109-3.149-.025-2.615-1.219-2.947-2.109-2.947h-4.749v6.096h4.749z"/><path d="M64.677 47.841h2.945v10.463c0 5.081 1.322 5.486 4.116 5.486 2.411 0 3.963-.584 3.963-5.486v-10.463h2.972v10.463c0 8.206-3.86 8.258-6.935 8.258-3.454 0-7.062 .2-7.062-8.258v-10.463z"/><path d="M82.882 47.841h7.468c3.81 0 5.105 2.463 5.105 4.927 0 1.753-.661 3.606-2.465 4.012 1.373 .279 2.694 1.729 2.694 4.293 0 3.148-1.372 5.359-5.284 5.359h-7.52v-18.591h.002zm7.341 7.568c1.499 0 2.311-.863 2.311-2.463 0-2.008-1.245-2.414-2.311-2.414h-4.396v4.876h4.396zm.101 8.331c1.118 0 2.413-.433 2.413-2.794 0-1.552-.687-2.947-2.413-2.947h-4.496v5.741h4.496z"/></g><g fill="#fff"><path d="M49.343 71.365h2.846v7.975h1.727l5.105-7.975h3.48l-5.942 9.295 5.942 9.297h-3.48l-5.105-7.925h-1.7v7.925h-2.871l-.002-18.592z"/><path d="M70.497 71.237c4.396 0 7.34 .838 7.34 9.55 0 8.203-2.768 9.271-7.34 9.271-4.57 0-7.391-.812-7.391-9.271 0-8.712 3.123-9.55 7.391-9.55zm0 16.052c3.328 0 4.396-1.015 4.396-6.502 0-6.449-1.346-6.781-4.396-6.781-2.972 0-4.445 .254-4.445 6.781 0 5.613 .964 6.502 4.445 6.502z"/><path d="M80.972 71.365h2.937l8.108 13.132v-13.132h2.887v18.592h-2.887l-8.136-13.056v13.056h-2.91l.001-18.592z"/></g><g fill="#A62463"><path d="M111.256 28.422l1.798-1.116h2.219v9.967h-2.232v-7.803l-1.785 .395v-1.443z"/><path d="M117.634 27.658c1.197-.421 2.845-.408 4.438-.38 1.498 .027 2.505 .926 2.505 2.451v.626c0 1.008-.326 1.687-1.074 1.959 .775 .301 1.074 1.036 1.074 2.071v.488c0 1.608-.939 2.491-2.601 2.491-1.552 0-3.062 .041-4.261-.38l.014-1.662h3.24c.981 0 1.377-.04 1.377-.803v-.299c0-.736-.45-.845-1.293-.872l-2.492-.109v-1.797l2.492-.135c.938-.055 1.319-.164 1.319-.845v-.328c0-.736-.612-.83-1.319-.83h-3.419v-1.646z"/></g></svg>