<svg xmlns="http://www.w3.org/2000/svg" width="118.607" height="107.443" viewBox="0 0 118.607 107.443" enable-background="new 0 0 118.607 107.443"><style type="text/css"><![CDATA[
	.st0{fill:#FFFFFF;}
	.st1{fill:#9C3C66;}  /*9C3C66*/
	.st2{fill:#A62463;}
	.HL0{fill:#461b29;}
	.HL1{fill:#641f38;}
	.HL2{fill:#9C3C66;}
]]></style><g id="Flaechen"><path class="st1" d="M87.757 71.104c-.013 1.121-.938 2.121-2.054 2.223l-49.867 4.502c-1.116 .102-2.233-.711-2.481-1.805l-8.73-38.504c-.248-1.093 .466-2.023 1.587-2.067l59.948-2.32c1.121-.043 2.026 .838 2.014 1.959l-.417 36.012z" id="f0"/><path class="st1" d="M32.548 16.485c-.681 .419-.492 1.261-.4 2.219 2.984 31.096 5.286 51.874 6.193 59.581 .229 1.949 .439 2.441 1.062 2.893 .757 .551 2.267 .932 3.073 1.055 6.812 1.041 21.919 1.836 28.816 1.975 1.251 .027 3.824-.119 4.906-.957 .883-.686 1.65-2.072 1.921-3.461 .271-1.387 7.288-37.389 7.533-38.662 .245-1.273 .275-1.929 .278-2.777 .003-.978-.4-2.408-2.385-3.541-6.209-3.548-22.22-11.574-48.586-18.279-1.042-.265-1.767-.444-2.411-.046z" id="f1"/><path class="st1" d="M86.116 69.25c-.549-9.393-3.173-23.005-4.842-33.827-.223-1.441-.574-3.387-1.521-4.298-.888-.855-2.456-1.21-4.02-1.462-11.349-1.827-36.619-4.704-48.785-2.821-.477 .074-1.73 .375-2.033 1.04-.253 .555-.103 1.367 .121 1.931 7.835 19.776 12.455 35.496 20.002 54.044 .361 .891 .873 1.791 1.832 2.02 1.063 .25 2.468-.266 3.186-.465 3.175-.883 31.66-8.33 32.848-8.664 1.188-.336 2.457-.727 2.938-1.508 .703-1.138 .421-3.941 .274-5.99z" id="f2"/></g><g id="Ueberleger"><path class="HL2" d="M86.115 69.239m0-.005-.001-.006-.001-.018v0m-.002-.033v0m-.002-.018l.002 .016-.002-.016m-.003-.053v0m-58.892-33.692l-1.002 .039c-1.121 .043-1.835 .974-1.587 2.067l8.729 38.504c.234 1.032 1.241 1.813 2.292 1.813l.189-.009 2.426-.219c-.404-3.46-1.039-9.106-1.856-16.75-2.91-8.208-5.759-16.448-9.191-25.445m59.025-2.283l-.079 .001-5.295 .205c1.037 .549 1.931 1.043 2.681 1.472 1.984 1.133 2.388 2.563 2.385 3.541-.003 .848-.033 1.503-.278 2.777-.078 .408-.852 4.375-1.875 9.627 1.075 6.667 2.032 13.241 2.339 18.495 .087 1.216 .222 2.696 .17 3.938 .838-.329 1.46-1.166 1.471-2.084l.417-36.011c.012-1.094-.852-1.961-1.936-1.961"/><path class="HL2" d="M80.859 33.334l.001 .003h.005l-.006-.003m-47.438-17.082c-.317 0-.603 .065-.873 .233-.681 .419-.492 1.261-.4 2.219 .25 2.608 .496 5.145 .736 7.606 1.341-.056 2.753-.082 4.217-.082 11.311 0 25.754 1.558 35.033 2.89-8.516-3.786-20.864-8.439-37.174-12.587-.605-.154-1.103-.279-1.539-.279"/><path class="HL1" d="M80.865 33.338h-.005c.19 .705 .315 1.445 .414 2.085 .735 4.769 1.656 10.079 2.503 15.332 1.023-5.252 1.797-9.22 1.875-9.627 .245-1.273 .275-1.929 .278-2.777 .003-.978-.4-2.408-2.385-3.541-.749-.429-1.643-.923-2.68-1.472"/><path class="HL2" d="M42.415 77.234l-4.153 .375 .079 .676c.229 1.949 .439 2.441 1.062 2.893 .757 .551 2.267 .932 3.073 1.055 .609 .093 1.285 .185 2.016 .273-.717-1.78-1.407-3.535-2.077-5.272"/><path class="HL1" d="M36.405 60.859c.817 7.644 1.452 13.29 1.856 16.75l4.153-.375c-2.151-5.582-4.094-10.971-6.009-16.375"/><path class="HL2" d="M78.484 77.917c-5.507 1.448-14.948 3.923-21.494 5.649 5.444 .342 10.882 .572 14.302 .641l.286 .003c1.323 0 3.615-.182 4.62-.96 .883-.686 1.65-2.072 1.921-3.461l.365-1.872"/><path class="HL2" d="M32.884 26.31c-2.193 .092-4.198 .264-5.936 .533-.477 .074-1.73 .375-2.033 1.04-.253 .555-.103 1.367 .121 1.931 .754 1.902 1.478 3.768 2.178 5.601l6.543-.253c-.282-2.834-.573-5.786-.873-8.852"/><path class="HL1" d="M33.757 35.161l-6.543 .253c3.433 8.997 6.281 17.237 9.191 25.445-.744-6.959-1.639-15.571-2.648-25.698"/><path class="HL2" d="M86.286 73.188c-.186 .072-.381 .12-.583 .139l-6.438 .581-.781 4.01c2.471-.65 4.149-1.093 4.419-1.169 1.188-.336 2.457-.727 2.938-1.508 .287-.464 .41-1.203 .445-2.053m-14.152-44.07c3.584 1.594 6.489 3.033 8.726 4.217-.238-.879-.581-1.704-1.106-2.209-.888-.855-2.456-1.21-4.02-1.462-1.082-.175-2.29-.358-3.6-.546"/><path class="HL1" d="M86.115 69.24m0-.006-.001-.006-.001-.016v0m-.002-.032v0m0-.005l-.002-.016 .002 .016m-.005-.067v0m-2.329-18.353c-1.416 7.269-3.312 16.998-4.512 23.152l6.438-.581c.202-.019 .397-.066 .583-.139 .052-1.241-.083-2.722-.17-3.938-.306-5.253-1.263-11.827-2.339-18.494"/><path class="HL2" d="M44.491 82.506l.547 1.352c.361 .891 .873 1.791 1.832 2.02 .2 .047 .413 .067 .63 .067 .938 0 1.973-.37 2.556-.532 .846-.235 3.489-.937 6.935-1.846-4.554-.286-9.114-.649-12.5-1.061"/><path class="HL1" d="M79.266 73.907l-36.851 3.327c.67 1.736 1.36 3.491 2.076 5.271 3.386 .412 7.945 .775 12.499 1.061 6.546-1.727 15.987-4.201 21.494-5.649l.782-4.01m-42.165-47.679c-1.464 0-2.876 .026-4.217 .082 .3 3.066 .591 6.018 .873 8.851l47.104-1.823-.001-.003c-2.236-1.184-5.142-2.623-8.726-4.217-9.28-1.332-23.723-2.89-35.033-2.89"/><path class="HL0" d="M80.86 33.338l-47.104 1.823c1.009 10.127 1.904 18.74 2.648 25.699 1.915 5.403 3.857 10.793 6.01 16.375l36.851-3.327 4.512-23.152c-.847-5.252-1.768-10.562-2.503-15.332-.098-.641-.223-1.382-.414-2.086"/></g><g id="PUB"><path class="st0" d="M42.681 39.441h5.78c1.622 0 3.599 .559 3.599 4.121 0 4.065-2.106 4.345-3.599 4.308-.746-.038-3.524-.336-3.617-.373v5.594h-2.163v-13.65zm5.649 6.452c.877 0 1.548-.373 1.548-2.312-.019-1.92-.895-2.163-1.548-2.163h-3.486v4.475h3.486z"/><path class="st0" d="M54.014 39.441h2.163v7.682c0 3.729 .97 4.027 3.021 4.027 1.771 0 2.909-.429 2.909-4.027v-7.682h2.182v7.682c0 6.023-2.834 6.061-5.091 6.061-2.535 0-5.184 .148-5.184-6.061v-7.682z"/><path class="st0" d="M67.379 39.441h5.482c2.797 0 3.748 1.809 3.748 3.617 0 1.287-.485 2.648-1.809 2.946 1.007 .205 1.977 1.268 1.977 3.151 0 2.312-1.007 3.935-3.879 3.935h-5.52v-13.649zm5.389 5.557c1.101 0 1.697-.634 1.697-1.809 0-1.473-.914-1.771-1.697-1.771h-3.226v3.58h3.226zm.075 6.115c.82 0 1.771-.317 1.771-2.051 0-1.138-.504-2.163-1.771-2.163h-3.301v4.214h3.301z"/></g><g id="KON"><path class="st0" d="M42.758 56.711h2.088v5.854h1.268l3.748-5.854h2.555l-4.363 6.824 4.363 6.824h-2.555l-3.748-5.817h-1.248v5.817h-2.107v-13.648z"/><path class="st0" d="M58.287 56.617c3.227 0 5.389 .615 5.389 7.011 0 6.022-2.033 6.806-5.389 6.806s-5.426-.596-5.426-6.806c0-6.396 2.293-7.011 5.426-7.011zm0 11.784c2.443 0 3.227-.745 3.227-4.773 0-4.735-.988-4.979-3.227-4.979-2.182 0-3.264 .187-3.264 4.979 0 4.121 .709 4.773 3.264 4.773z"/><path class="st0" d="M65.977 56.711h2.156l5.953 9.64v-9.64h2.119v13.648h-2.119l-5.973-9.584v9.584h-2.137v-13.648z"/></g><g id="Jahreszahl"><path class="st2" d="M88.209 25.186l1.319-.819h1.629v7.316h-1.639v-5.727l-1.31 .29v-1.06z"/><path class="st2" d="M92.89 24.626c.879-.31 2.089-.3 3.258-.28 1.1 .02 1.839 .68 1.839 1.799v.46c0 .74-.239 1.239-.789 1.439 .569 .22 .789 .76 .789 1.52v.359c0 1.18-.689 1.829-1.909 1.829-1.139 0-2.248 .03-3.128-.28l.01-1.219h2.379c.72 0 1.01-.03 1.01-.59v-.22c0-.54-.33-.62-.949-.64l-1.829-.08v-1.319l1.829-.1c.689-.04 .969-.12 .969-.62v-.24c0-.54-.449-.609-.969-.609h-2.51v-1.209z"/></g></svg>