<svg xmlns="http://www.w3.org/2000/svg" width="288" height="288"><linearGradient id="a" gradientUnits="userSpaceOnUse" x1="155.034" y1="-146.018" x2="145.7" y2="99.313"><stop offset="0" stop-color="#AF2624"/><stop offset="1" stop-color="#711813"/></linearGradient><rect fill="url(#a)" width="288" height="288"/><linearGradient id="b" gradientUnits="userSpaceOnUse" x1="145.928" y1="117.892" x2="251.26" y2="309.892"><stop offset="0" stop-color="#E04E4D"/><stop offset="1" stop-color="#CB2927"/></linearGradient><rect x="72" y="72" fill="url(#b)" width="216" height="216.001"/><linearGradient id="c" gradientUnits="userSpaceOnUse" x1="196.633" y1="167.58" x2="271.3" y2="354.246"><stop offset="0" stop-color="#EC8384"/><stop offset="1" stop-color="#E14242"/></linearGradient><rect x="144.001" y="144" fill="url(#c)" width="143.999" height="144.001"/><linearGradient id="d" gradientUnits="userSpaceOnUse" x1="80.664" y1="26.211" x2="244.666" y2="331.215"><stop offset="0" stop-color="#871E1A"/><stop offset="1" stop-color="#451211"/></linearGradient><polygon fill="url(#d)" points="287.73,0 283.652,4.322 283.677,4.322 283.677,283.682 4.323,283.682 4.323,283.281 0,287.709 0,288 288,288 288,0"/><linearGradient id="e" gradientUnits="userSpaceOnUse" x1="71.729" y1="30.947" x2="148.395" y2="150.944"><stop offset="0" stop-color="#C42B27"/><stop offset="1" stop-color="#871E1A"/></linearGradient><polygon fill="url(#e)" points="4.323,4.322 283.652,4.322 287.73,0 0,0 0,287.709 4.323,283.281"/><path fill="#B82B2D" d="M283.694 71.999l-.082 4.321h.064v207.361h-207.355v-.045h-4.321v4.364h216v-216.001h-4.306z"/><linearGradient id="f" gradientUnits="userSpaceOnUse" x1="145.077" y1="72.957" x2="201.746" y2="254.291"><stop offset="0" stop-color="#EA7172"/><stop offset="1" stop-color="#CB2927"/></linearGradient><path fill="url(#f)" d="M76.321 76.321h207.291l.082-4.321h-211.694v211.637h4.321v-207.316z"/><path fill="#C54A4B" d="M283.672 143.999v4.321h.005v135.361h-135.354v-.045h-4.322v4.364h143.999v-144.001h-4.328z"/><linearGradient id="g" gradientUnits="userSpaceOnUse" x1="197.543" y1="171.039" x2="245.544" y2="297.372"><stop offset="0" stop-color="#F0949A"/><stop offset="1" stop-color="#E14242"/></linearGradient><path fill="url(#g)" d="M148.323 148.32h135.27v-4.321h-139.592v139.637h4.322v-135.316z"/></svg>