<svg xmlns="http://www.w3.org/2000/svg" width="400.494" height="400.161"><path d="M200.659.027c108.602-1.454 200.085 90.798 199.834 200.428-.248 108.595-91.262 200.013-200.897 199.706-108.597-.304-199.976-91.428-199.595-201.025.377-108.319 91.206-200.937 200.658-199.109zm-156.216 172.866c-4.762 0-10.727-.064-16.689.067-.922.02-2.583.942-2.58 1.438.007 1.12.675 2.354 1.371 3.33 2.151 3.015 5.184 5.625 6.551 8.938 6.655 16.128 12.876 32.435 19.256 48.676 2.005 5.105 3.752 10.34 6.186 15.233.93 1.87 3.454 2.947 5.252 4.386 1.082-1.434 2.624-2.712 3.169-4.327 2.606-7.713 4.921-15.524 7.38-23.287 2.939-9.275 5.919-18.536 9.127-28.572.829 1.981 1.301 3.039 1.719 4.118 6.007 15.495 12.058 30.974 17.966 46.506 1.141 3 2.492 6.006 6.006 5.305 1.417-.283 2.675-3.235 3.323-5.197 3.749-11.363 6.892-22.942 11.015-34.163 4.835-13.16 6.157-27.72 15.246-39.266.306-.389-1.009-3.003-1.637-3.031-5.593-.246-11.201-.143-16.805-.143l-.918 1.386c1.046 1.272 1.857 2.927 3.185 3.74 3.185 1.952 4.32 4.431 3.147 7.973-.522 1.578-1.018 3.164-1.522 4.748-4.673 14.703-9.345 29.407-14.207 44.709-5.397-14.856-10.57-29.008-15.676-43.185-2.223-6.171-5.661-12.196-1.765-19.393-6.623 0-12.252-.11-17.871.078-1.39.047-2.748 1.06-4.121 1.629.884 1.216 1.547 2.722 2.692 3.595 4.008 3.057 6.998 7.332 5.714 11.942-4.185 15.026-9.238 29.811-14.172 45.367-5.881-15.754-11.671-30.625-16.922-45.683-1.784-5.115-2.209-10.701-3.42-16.917zm122.916-.707l-.058.696c-5.831 0-11.665-.116-17.489.089-1.3.046-2.56 1.222-3.838 1.878 1.054 1.019 1.984 2.715 3.186 2.937 4.51.832 6.669 3.295 6.67 7.81.007 18.657.049 37.314.01 55.971-.007 3.451-1.444 6.205-5.023 7.171-2.264.611-4.647 1.383-3.42 4.106.5 1.109 3.161 1.751 4.834 1.742 9.658-.052 19.321-.209 28.969-.631 8.91-.389 17.39-2.596 25.094-7.273 15.304-9.291 22.031-25.071 18.939-44.338-2.356-14.679-12.046-24.119-30.141-27.652-9.062-1.769-18.477-1.728-27.733-2.506zm111.466 43.864c2.94-2.326 5.492-4.158 7.83-6.232 6.766-6.003 10.11-13.503 7.336-22.344-2.748-8.758-10.043-12.873-18.658-13.497-12.084-.876-24.239-.816-36.366-1.008-.983-.016-1.984 1.119-2.977 1.719.995 1.064 1.867 2.873 3.007 3.061 4.804.795 6.868 3.494 6.866 8.17-.008 18.476.023 36.953-.008 55.429-.006 3.719-1.729 6.527-5.427 7.416-3.313.797-3.945 2.496-2.88 5.159 9.427 0 18.7.061 27.968-.121.713-.014 1.77-1.68 1.941-2.699.098-.584-1.182-1.894-1.996-2.044-2.566-.474-5.205-.555-8.006-.805 0-8.317-.125-16.122.094-23.918.051-1.809 1.117-5.021 1.989-5.117 2.994-.331 6.416-1.686 8.843 2.187 4.588 7.321 10.917 13.82 14.172 21.64 4.403 10.575 11.638 12.486 21.416 10.982.163-.025.333-.015.499-.003 3.646.268 4.238-1.585 3.661-3.485-3.478-2.055-6.871-3.003-8.555-5.238-7.178-9.522-13.85-19.426-20.749-29.252zm55.741-43.17c-5.655 0-12.291-.095-18.92.077-1.382.036-2.739 1.057-4.108 1.624 1.128 1.126 2.084 2.907 3.416 3.255 3.862 1.011 5.384 3.061 5.353 7.099-.143 18.814-.128 37.631-.009 56.446.024 3.845-1.255 6.234-4.922 7.678-1.292.509-2.07 2.321-3.083 3.538 1.425.697 2.853 2.005 4.274 1.999 15.314-.071 30.627-.352 45.94-.566 2.135-.03 4.271-.004 6.607-.004l4.919-22.355c-3.888-1.623-5.53-.285-6.823 2.653-1.4 3.178-2.973 6.405-5.125 9.085-1.545 1.923-4.094 4.078-6.321 4.227-7.735.515-15.524.199-23.47.199 0-18.353-.194-36.469.102-54.577.108-6.647 1.378-13.276 2.17-20.378z"/><path fill="#fff" d="M44.443 172.893c1.211 6.215 1.637 11.802 3.42 16.915 5.251 15.058 11.041 29.929 16.922 45.683 4.934-15.556 9.987-30.34 14.172-45.367 1.284-4.61-1.706-8.885-5.714-11.942-1.145-.873-1.808-2.379-2.692-3.595 1.373-.569 2.731-1.583 4.121-1.629 5.619-.188 11.248-.078 17.871-.078-3.896 7.197-.457 13.222 1.765 19.393 5.106 14.177 10.279 28.329 15.676 43.185 4.862-15.302 9.534-30.006 14.207-44.709.503-1.584.999-3.17 1.522-4.748 1.173-3.542.039-6.021-3.147-7.973-1.327-.813-2.139-2.468-3.185-3.74l.918-1.386c5.604 0 11.212-.103 16.805.143.628.028 1.944 2.642 1.637 3.031-9.089 11.546-10.411 26.106-15.246 39.266-4.123 11.221-7.265 22.8-11.015 34.163-.648 1.962-1.906 4.914-3.323 5.197-3.513.701-4.864-2.305-6.006-5.305-5.908-15.533-11.959-31.011-17.966-46.506-.418-1.079-.89-2.137-1.719-4.118-3.208 10.036-6.189 19.298-9.127 28.572-2.46 7.763-4.774 15.574-7.38 23.287-.546 1.615-2.087 2.893-3.169 4.327-1.798-1.439-4.322-2.516-5.252-4.386-2.434-4.893-4.181-10.128-6.186-15.233-6.38-16.241-12.601-32.548-19.256-48.676-1.367-3.313-4.4-5.922-6.551-8.938-.696-.976-1.364-2.21-1.371-3.33-.003-.496 1.659-1.417 2.58-1.438 5.962-.129 11.927-.065 16.689-.065z"/><path fill="#fff" d="M167.359 172.186c9.255.778 18.671.736 27.733 2.506 18.095 3.533 27.786 12.973 30.141 27.652 3.092 19.267-3.635 35.047-18.939 44.338-7.704 4.677-16.184 6.884-25.094 7.273-9.648.421-19.311.578-28.969.631-1.673.009-4.334-.632-4.834-1.742-1.227-2.723 1.156-3.495 3.42-4.106 3.579-.966 5.016-3.72 5.023-7.171.04-18.657-.003-37.314-.01-55.971-.002-4.515-2.161-6.978-6.67-7.81-1.202-.222-2.131-1.918-3.186-2.937 1.278-.656 2.538-1.832 3.838-1.878 5.823-.206 11.658-.089 17.489-.089l.058-.696zm.102 75.885c11.504.269 22.636.843 32.088-6.117 12.969-9.549 14.357-23.253 12.099-37.737-1.272-8.161-5.282-14.994-12.292-19.807-9.156-6.287-19.55-5.643-29.852-5.235-.723.029-1.951 2.125-1.957 3.266-.117 21.631-.086 43.264-.086 65.63z"/><path fill="#fff" d="M278.825 216.05c6.9 9.826 13.571 19.73 20.748 29.252 1.685 2.235 5.077 3.183 8.555 5.238.578 1.9-.015 3.753-3.661 3.485-.166-.012-.336-.022-.499.003-9.777 1.503-17.013-.407-21.416-10.982-3.255-7.819-9.584-14.319-14.172-21.64-2.427-3.872-5.849-2.518-8.843-2.187-.872.097-1.938 3.308-1.989 5.117-.219 7.796-.094 15.601-.094 23.918 2.801.25 5.44.331 8.006.805.814.15 2.094 1.46 1.996 2.044-.171 1.02-1.228 2.685-1.941 2.699-9.268.182-18.541.121-27.968.121-1.065-2.663-.433-4.362 2.88-5.159 3.698-.889 5.42-3.697 5.427-7.416.032-18.476 0-36.953.008-55.429.002-4.676-2.062-7.375-6.866-8.17-1.14-.189-2.012-1.998-3.007-3.061.993-.6 1.994-1.734 2.977-1.719 12.127.191 24.282.132 36.366 1.008 8.614.624 15.91 4.739 18.658 13.497 2.774 8.841-.57 16.341-7.336 22.344-2.337 2.074-4.89 3.906-7.829 6.232zm-21.342-3.212c3.264 0 6.039.035 8.813-.007 7.744-.115 13.453-4.889 15.049-12.544 2.813-13.492-8.046-24.267-21.493-21.202-.931.212-2.253 1.628-2.267 2.502-.159 10.243-.102 20.489-.102 31.251z"/><path fill="#fff" d="M334.566 172.88c-.792 7.102-2.062 13.73-2.171 20.377-.296 18.108-.102 36.224-.102 54.577 7.946 0 15.736.316 23.47-.199 2.228-.148 4.776-2.304 6.321-4.227 2.153-2.679 3.726-5.906 5.125-9.085 1.294-2.937 2.936-4.275 6.823-2.653l-4.919 22.355c-2.335 0-4.471-.026-6.607.004-15.313.214-30.626.495-45.94.566-1.422.007-2.849-1.301-4.274-1.999 1.013-1.217 1.791-3.029 3.083-3.538 3.666-1.444 4.946-3.833 4.922-7.678-.119-18.815-.134-37.631.009-56.446.031-4.038-1.491-6.088-5.353-7.099-1.331-.349-2.288-2.129-3.416-3.255 1.369-.567 2.725-1.588 4.108-1.624 6.631-.17 13.266-.076 18.921-.076z"/><path d="M167.461 248.071c0-22.366-.031-43.999.087-65.63.006-1.14 1.234-3.237 1.957-3.266 10.302-.408 20.696-1.051 29.852 5.235 7.01 4.813 11.019 11.646 12.292 19.807 2.258 14.484.869 28.188-12.099 37.737-9.453 6.959-20.585 6.385-32.089 6.117zM257.483 212.838c0-10.762-.057-21.008.102-31.251.014-.874 1.336-2.29 2.267-2.502 13.447-3.065 24.306 7.71 21.493 21.202-1.596 7.655-7.305 12.429-15.049 12.544-2.774.042-5.549.007-8.813.007z"/></svg>