<?xml version="1.0" encoding="utf-8"?><!DOCTYPE svg PUBLIC "-//W3C//DTD SVG 1.1//EN" "http://www.w3.org/Graphics/SVG/1.1/DTD/svg11.dtd"><svg version="1.1" xmlns="http://www.w3.org/2000/svg" xmlns:xlink="http://www.w3.org/1999/xlink" x="0px" y="0px" viewBox="0 0 222.977 112.972" enable-background="new 0 0 222.977 112.972" xml:space="preserve"><path d="M0,51.245h4.507L21.284,77.08h0.089V51.245h4.016v31.858h-4.64L4.105,57.537H4.016v25.567H0V51.245z"/><path d="M50.052,75.786c-1.026,5.087-4.685,7.854-9.861,7.854c-7.362,0-10.842-5.087-11.066-12.137 c0-6.917,4.552-12.002,10.843-12.002c8.166,0,10.664,7.63,10.441,13.208H33.142c-0.134,4.016,2.142,7.585,7.184,7.585 c3.124,0,5.31-1.518,5.979-4.507H50.052z M46.394,69.361c-0.178-3.614-2.9-6.515-6.648-6.515c-3.971,0-6.336,2.989-6.604,6.515 H46.394z"/><path d="M59.601,60.035h4.596v3.347h-4.596v14.323c0,1.74,0.491,2.053,2.856,2.053h1.74v3.346h-2.9 c-3.927,0-5.488-0.803-5.488-5.042v-14.68h-3.927v-3.347h3.927V53.12h3.792V60.035z"/><path d="M69.601,41.02h18.154c10.904,0,19.097,6.837,19.097,20.807c0,12.201-6.248,21.277-19.097,21.277H69.601V41.02z M78.855,75.323h8.251c5.364,0,10.492-3.301,10.492-12.613c0-8.488-2.947-13.911-12.142-13.911h-6.601V75.323z"/><path d="M110.919,41.02h9.195l17.565,28.233h0.118V41.02h8.665v42.084h-9.254L119.702,54.93h-0.118v28.174h-8.665V41.02z"/><path d="M166.089,41.02h9.489l15.738,42.084h-9.607l-3.183-9.372h-15.737l-3.301,9.372h-9.372L166.089,41.02z M165.205,66.836 h10.904l-5.305-15.443h-0.118L165.205,66.836z"/><rect x="69.488" y="31.738" fill="#8F8293" width="35.706" height="1.511"/><rect x="69.488" y="89.357" fill="#009FFF" width="35.706" height="2.739"/><rect x="69.488" y="21.915" fill="#00D65B" width="35.706" height="1.511"/><rect x="111.333" y="29.754" fill="#009FFF" width="35.706" height="3.495"/><rect x="111.333" y="10.957" fill="#8F8293" width="35.706" height="1.512"/><rect x="111.333" y="89.357" fill="#8F8293" width="35.706" height="6.329"/><rect x="111.333" y="99.371" fill="#00D65B" width="35.706" height="1.511"/><rect x="111.333" y="111.46" fill="#8F8293" width="35.706" height="1.512"/><rect x="152.517" y="31.738" fill="#8F8293" width="37.595" height="1.511"/><rect x="152.517" y="89.357" fill="#8F8293" width="37.595" height="1.511"/><rect x="152.517" y="94.27" fill="#8F8293" width="37.595" height="1.511"/><rect x="152.517" y="20.403" fill="#009FFF" width="37.595" height="1.511"/><rect x="152.517" fill="#8F8293" width="37.595" height="1.511"/><path fill="#8F8293" d="M208.049,40.968h-1.605c-0.813-0.967-1.453-1.991-1.917-3.071c-0.465-1.08-0.698-2.356-0.698-3.829 c0-1.439,0.23-2.708,0.69-3.804s1.102-2.128,1.925-3.096h1.605v0.07c-0.379,0.341-0.739,0.735-1.083,1.181 c-0.344,0.447-0.663,0.967-0.957,1.56c-0.281,0.575-0.508,1.208-0.684,1.9s-0.263,1.421-0.263,2.188 c0,0.799,0.085,1.531,0.256,2.195c0.171,0.664,0.401,1.295,0.691,1.893c0.28,0.575,0.601,1.095,0.96,1.56s0.72,0.859,1.08,1.182 V40.968z"/><path fill="#8F8293" d="M217.712,38.079h-1.803l-3.31-4.151h-1.584v4.151h-1.389v-10.44h2.692c0.599,0,1.1,0.033,1.504,0.098 s0.789,0.217,1.153,0.456c0.365,0.233,0.653,0.535,0.866,0.904s0.319,0.827,0.319,1.375c0,0.767-0.194,1.407-0.582,1.921 s-0.916,0.895-1.585,1.143L217.712,38.079z M214.711,30.577c0-0.304-0.054-0.574-0.162-0.81c-0.107-0.236-0.273-0.429-0.497-0.578 c-0.196-0.131-0.426-0.223-0.688-0.277c-0.262-0.054-0.587-0.081-0.975-0.081h-1.374v3.941h1.22c0.397,0,0.755-0.035,1.073-0.105 c0.317-0.07,0.589-0.215,0.813-0.435c0.2-0.196,0.349-0.43,0.444-0.701S214.711,30.941,214.711,30.577z"/><path fill="#8F8293" d="M222.22,34.068c0,1.444-0.231,2.713-0.694,3.808c-0.463,1.094-1.104,2.125-1.921,3.092h-1.606v-0.07 c0.36-0.323,0.723-0.719,1.087-1.188c0.365-0.47,0.683-0.988,0.954-1.553c0.289-0.603,0.52-1.24,0.69-1.911 s0.256-1.396,0.256-2.177c0-0.771-0.087-1.5-0.26-2.188s-0.401-1.321-0.687-1.9s-0.608-1.101-0.968-1.563 c-0.36-0.463-0.718-0.855-1.073-1.178v-0.07h1.606c0.812,0.968,1.452,1.996,1.917,3.085 C221.987,31.343,222.22,32.615,222.22,34.068z"/></svg>